<svg id="レイヤー_1" data-name="レイヤー 1" xmlns="http://www.w3.org/2000/svg" viewBox="0 0 128 32"><defs><style>.cls-1{fill:#bdccd4;}</style></defs><path class="cls-1" d="M5.47,30.11A9.19,9.19,0,0,1,1.5,27,8.14,8.14,0,0,1,0,22.26H6.44a4.17,4.17,0,0,0,1.3,2.92A4.68,4.68,0,0,0,11,26.25a5,5,0,0,0,3.3-1,3.28,3.28,0,0,0,1.2-2.64,3.09,3.09,0,0,0-.81-2.19,5.87,5.87,0,0,0-2-1.35A34,34,0,0,0,9.27,18a34.82,34.82,0,0,1-4.74-1.7,8.27,8.27,0,0,1-3.14-2.53A7.23,7.23,0,0,1,.09,9.21,8.07,8.07,0,0,1,1.42,4.58a8.47,8.47,0,0,1,3.73-3,13.58,13.58,0,0,1,5.49-1,11.86,11.86,0,0,1,7.53,2.26A8.34,8.34,0,0,1,21.37,9H14.76a3.42,3.42,0,0,0-1.31-2.55,4.93,4.93,0,0,0-3.24-1,4.18,4.18,0,0,0-2.81.9A3.27,3.27,0,0,0,6.35,9a2.75,2.75,0,0,0,.79,2,6.21,6.21,0,0,0,2,1.28c.79.33,1.89.71,3.32,1.14a33.5,33.5,0,0,1,4.77,1.72,8.49,8.49,0,0,1,3.17,2.57,7.16,7.16,0,0,1,1.33,4.51,8.46,8.46,0,0,1-1.24,4.46A8.79,8.79,0,0,1,16.82,30a12.37,12.37,0,0,1-5.71,1.22A14.14,14.14,0,0,1,5.47,30.11Z"/><path class="cls-1" d="M25.94,12.52a10.56,10.56,0,0,1,3.9-4.29,10.44,10.44,0,0,1,5.52-1.5A9.62,9.62,0,0,1,40,7.8a9.46,9.46,0,0,1,3.2,2.7V7.11h6V30.88h-6V27.41A9,9,0,0,1,40,30.18a9.74,9.74,0,0,1-4.7,1.09,10.11,10.11,0,0,1-5.47-1.54,10.89,10.89,0,0,1-3.9-4.36,14,14,0,0,1-1.44-6.46A13.73,13.73,0,0,1,25.94,12.52Zm16.41,2.72A6,6,0,0,0,40,12.84a6.11,6.11,0,0,0-8.51,2.36,7.41,7.41,0,0,0-.88,3.71,7.71,7.71,0,0,0,.88,3.76,6.27,6.27,0,0,0,2.32,2.46A5.78,5.78,0,0,0,36.9,26,6.24,6.24,0,0,0,40,25.16a6,6,0,0,0,2.32-2.41A7.7,7.7,0,0,0,43.21,19,7.76,7.76,0,0,0,42.35,15.24Z"/><path class="cls-1" d="M75.87,7.11V30.88H69.81v-3a7.86,7.86,0,0,1-3,2.42,9.33,9.33,0,0,1-4.05.88A10,10,0,0,1,57.8,30a8.3,8.3,0,0,1-3.37-3.47,11.56,11.56,0,0,1-1.22-5.47V7.11h6V20.2a6.2,6.2,0,0,0,1.41,4.36,5,5,0,0,0,3.86,1.52,5.09,5.09,0,0,0,3.91-1.52,6.2,6.2,0,0,0,1.41-4.36V7.11Z"/><path class="cls-1" d="M80.46,12.54a10.61,10.61,0,0,1,4.16-4.29,12,12,0,0,1,6.09-1.52A11.68,11.68,0,0,1,98,8.94a10.75,10.75,0,0,1,3.88,6.2H95.43a4.73,4.73,0,0,0-1.74-2.43,5.07,5.07,0,0,0-3-.88,4.94,4.94,0,0,0-4.08,1.87,8.26,8.26,0,0,0-1.5,5.3,8.16,8.16,0,0,0,1.5,5.25,4.94,4.94,0,0,0,4.08,1.87,4.55,4.55,0,0,0,4.76-3.26h6.48A11,11,0,0,1,98,29a11.56,11.56,0,0,1-7.3,2.27,12.07,12.07,0,0,1-6.09-1.52,10.74,10.74,0,0,1-4.16-4.29A13.26,13.26,0,0,1,79,19,13.26,13.26,0,0,1,80.46,12.54Z"/><path class="cls-1" d="M127.83,20.8H110.45a5.87,5.87,0,0,0,1.8,4,5.53,5.53,0,0,0,3.91,1.46,4.89,4.89,0,0,0,4.76-2.87h6.48a10.8,10.8,0,0,1-4,5.64,11.52,11.52,0,0,1-7.16,2.21,12.45,12.45,0,0,1-6.16-1.52,10.75,10.75,0,0,1-4.25-4.31A13.18,13.18,0,0,1,104.36,19a13.48,13.48,0,0,1,1.5-6.48,10.46,10.46,0,0,1,4.2-4.29,12.65,12.65,0,0,1,6.23-1.5,12.52,12.52,0,0,1,6.07,1.45,10.32,10.32,0,0,1,4.16,4.15A12.47,12.47,0,0,1,128,18.48,14.75,14.75,0,0,1,127.83,20.8Zm-6-4a4.8,4.8,0,0,0-1.67-3.72,6,6,0,0,0-4-1.39A5.45,5.45,0,0,0,112.36,13a5.92,5.92,0,0,0-1.87,3.76Z"/></svg>